{"title":"Una.noche.2012.NTSC.DVD.DD5.1.x264-Decemb3r","uid":10347705,"size":1940505245,"categoryP":"video","categoryS":"movies","magnet":"?xt=urn:btih:4fc0c7d9fc52bd1bbf1726726a45308dfbf3cbc5&amp;dn=Una.noche.2012.NTSC.DVD.DD5.1.x264-Decemb3r&amp;tr=udp%3A%2F%2Ftracker.openbittorrent.com%3A80&amp;tr=udp%3A%2F%2Fopen.demonii.com%3A1337&amp;tr=udp%3A%2F%2Ftracker.coppersurfer.tk%3A6969&amp;tr=udp%3A%2F%2Fexodus.desync.com%3A6969","seeders":2,"leechers":0,"uploader":"rpessoa","files":2,"time":1402629429,"description":"In Havana, Raul dreams of escaping to Miami. Accused of assault, he appeals to Elio to help him reach the forbidden world 90 miles across the ocean. One night, full of hope, they face the biggest challenge of their lives.\n\nSubs: English and Portuguese\n &lt;a href=&quot;\nhttp://www.imdb.com/title/tt2184331/&quot; rel=&quot;nofollow&quot; target=&quot;_NEW&quot;&gt;\nhttp://www.imdb.com/title/tt2184331/&lt;/a&gt;\n\nGeneral\nUnique ID                                : 176869065014099283476701589630768812868 (0x850FBE2BB8CBEBF59BEB6B7BDBE29344)\nComplete name                            : Una.noche.2012.NTSC.DVD.DD5.1.x264-Decemb3r.mkv\nFormat                                   : Matroska\nFormat version                           : Version 2\nFile size                                : 1.81 GiB\nDuration                                 : 1h 30mn\nOverall bit rate                         : 2 854 Kbps\nEncoded date                             : UTC 2014-04-23 23:55:58\nWriting application                      : mkvmerge v6.8.0 ('Theme for Great Cities') 32bit built on Mar  2 2014 21:27:07\nWriting library                          : libebml v1.3.0 + libmatroska v1.4.1\n\nVideo\nID                                       : 1\nFormat                                   : AVC\nFormat/Info                              : Advanced Video Codec\nFormat profile                           : &lt;a class=&quot;__cf_email__&quot; href=&quot;/cdn-cgi/l/email-protection&quot; data-cfemail=&quot;dd95b4bab59d91eef3ec&quot;&gt;[email&amp;#160;protected]&lt;/a&gt;&lt;script cf-hash='f9e31' type=&quot;text/javascript&quot;&gt;\n/* &lt;![CDATA[ */!function(){try{var t=&quot;currentScript&quot;in document?document.currentScript:function(){for(var t=document.getElementsByTagName(&quot;script&quot;),e=t.length;e--;)if(t[e].getAttribute(&quot;cf-hash&quot;))return t[e]}();if(t&amp;&amp;t.previousSibling){var e,r,n,i,c=t.previousSibling,a=c.getAttribute(&quot;data-cfemail&quot;);if(a){for(e=&quot;&quot;,r=parseInt(a.substr(0,2),16),n=2;a.length-n;n+=2)i=parseInt(a.substr(n,2),16)^r,e+=String.fromCharCode(i);e=document.createTextNode(e),c.parentNode.replaceChild(e,c)}}}catch(u){}}();/* ]]&gt; */&lt;/script&gt;\nFormat settings, CABAC                   : Yes\nFormat settings, ReFrames                : 12 frames\nCodec ID                                 : V_MPEG4/ISO/AVC\nDuration                                 : 1h 30mn\nBit rate                                 : 2 349 Kbps\nWidth                                    : 720 pixels\nHeight                                   : 480 pixels\nDisplay aspect ratio                     : 16:9\nOriginal display aspect ratio            : 16:9\nFrame rate                               : 23.976 fps\nStandard                                 : NTSC\nColor space                              : YUV\nChroma subsampling                       : 4:2:0\nBit depth                                : 8 bits\nScan type                                : Progressive\nBits/(Pixel*Frame)                       : 0.284\nStream size                              : 1.49 GiB (82%)\nWriting library                          : x264 core 142 r2409 d6b4e63\nEncoding settings                        : cabac=1 / ref=12 / deblock=1:-3:-3 / analyse=0x3:0x113 / me=umh / subme=10 / psy=1 / psy_rd=0.95:0.00 / mixed_ref=1 / me_range=32 / chroma_me=1 / trellis=2 / 8x8dct=1 / cqm=0 / deadzone=21,11 / fast_pskip=0 / chroma_qp_offset=-2 / threads=3 / lookahead_threads=1 / sliced_threads=0 / nr=0 / decimate=1 / interlaced=0 / bluray_compat=0 / constrained_intra=0 / bframes=8 / b_pyramid=2 / b_adapt=2 / b_bias=0 / direct=3 / weightb=1 / open_gop=0 / weightp=2 / keyint=240 / keyint_min=23 / scenecut=40 / intra_refresh=0 / rc=crf / mbtree=0 / crf=16.7 / qcomp=0.60 / qpmin=0 / qpmax=69 / qpstep=4 / ip_ratio=1.40 / pb_ratio=1.30 / aq=1:0.80\nLanguage                                 : English\nDefault                                  : Yes\nForced                                   : No\n\nAudio\nID                                       : 2\nFormat                                   : AC-3\nFormat/Info                              : Audio Coding 3\nMode extension                           : CM (complete main)\nCodec ID                                 : A_AC3\nDuration                                 : 1h 30mn\nBit rate mode                            : Constant\nBit rate                                 : 448 Kbps\nChannel(s)                               : 6 channels\nChannel positions                        : Front: L C R, Side: L R, LFE\nSampling rate                            : 48.0 KHz\nBit depth                                : 16 bits\nCompression mode                         : Lossy\nStream size                              : 290 MiB (16%)\nLanguage                                 : Spanish\nDefault                                  : Yes\nForced                                   : No\n\nText\nID                                       : 3\nFormat                                   : UTF-8\nCodec ID                                 : S_TEXT/UTF8\nCodec ID/Info                            : UTF-8 Plain Text\nLanguage                                 : English\nDefault                                  : Yes\nForced                                   : No\n\nMenu\n00:00:00.000                             : :Chapter 01\n00:08:20.567                             : :Chapter 02\n00:15:46.268                             : :Chapter 03\n00:22:45.969                             : :Chapter 04\n00:30:57.736                             : :Chapter 05\n00:39:13.070                             : :Chapter 06\n00:46:51.437                             : :Chapter 07\n00:55:44.871                             : :Chapter 08\n01:02:31.971                             : :Chapter 09\n01:13:01.438                             : :Chapter 10\n01:18:47.205                             : :Chapter 11\n01:25:58.572                             : :Chapter 12\n01:30:33.273                             : :Chapter 13","torrent":{"xt":"urn:btih:4fc0c7d9fc52bd1bbf1726726a45308dfbf3cbc5","amp;dn":"Una.noche.2012.NTSC.DVD.DD5.1.x264-Decemb3r","amp;tr":["udp%3A%2F%2Ftracker.openbittorrent.com%3A80","udp%3A%2F%2Fopen.demonii.com%3A1337","udp%3A%2F%2Ftracker.coppersurfer.tk%3A6969","udp%3A%2F%2Fexodus.desync.com%3A6969"],"infoHash":"4fc0c7d9fc52bd1bbf1726726a45308dfbf3cbc5","infoHashBuffer":{"type":"Buffer","data":[79,192,199,217,252,82,189,27,191,23,38,114,106,69,48,141,251,243,203,197]},"announce":[],"urlList":[]}}